<svg width="516" height="516" viewBox="0 0 516 516" fill="none" xmlns="http://www.w3.org/2000/svg">
<circle cx="258" cy="258" r="236" stroke="#1E1E1E" stroke-width="30"/>
<circle cx="258" cy="258" r="236" fill="#D6E1EA" stroke="#272A2D" stroke-width="20"/>
<path d="M405.5 138.5H402C401.3 138.5 385.1 138.4 360.9 141.6C338.6 144.5 304.7 150.7 270.9 164C269.3 164.6 267.6 163.4 267.6 161.7V109.2C267.6 104.9 264.1 101.5 259.9 101.5H144.4C140.6 101.5 137.5 104.6 137.5 108.4V406.8C137.5 411.1 141 414.5 145.2 414.5H260.5C264.4 414.5 267.5 411.4 267.5 407.5V348.7C267.5 316.5 289.3 293.2 332.1 279.7C366.4 268.9 401.6 268.5 402 268.5H405.7C409.5 268.5 412.6 265.4 412.6 261.6V145.5C412.5 141.6 409.4 138.5 405.5 138.5ZM159.5 131.2C159.5 127 163 123.5 167.2 123.5H238.6C242.4 123.5 245.5 126.6 245.5 130.4V173.6C245.5 174.5 245 175.3 244.2 175.8C217.8 189.4 196.3 206.3 179.4 226.2C173.7 232.9 168.4 240 164 247.4C162.7 249.5 159.5 248.7 159.5 246.2V131.2ZM245.5 384.8C245.5 389 242 392.5 237.8 392.5H167.2C163 392.5 159.5 389 159.5 384.8V348.7C159.5 284 187.2 234.9 241.8 202.2C243.4 201.2 245.5 202.4 245.5 204.3V384.8ZM390.5 240.6C390.5 244.4 387.6 247.6 383.8 247.9C369.3 249.1 347.8 252 326 258.8C303.3 265.9 285 275.8 271.8 288.2L271.6 288.4C270.1 289.9 267.5 288.8 267.5 286.7V190.7C267.5 189.7 268.1 188.8 269 188.4C272.3 187.1 275.1 185.8 278.3 184.5C318.7 168.5 359.5 163 382.6 161.1C386.9 160.7 390.5 164.1 390.5 168.4V240.6Z" fill="#272A2D" stroke="#272A2D" stroke-width="5" stroke-miterlimit="10"/>
</svg>
